#!OML:ASF H:\Terrain\Patient Classification 1\Walking\liu\liu.ASF
:FULLY-SPECIFIED
:DEGREES
127
root 8.42111 16.4822 -4.06378 9.02118 -6.87129 -6.01545
lowerback -3.98022 2.98395 0.591608
upperback 0.137131 3.86202 3.97439
thorax 2.13439 1.91688 3.98363
lowerneck -19.3001 -4.48829 -12.8068
upperneck 17.7078 -5.46664 13.5692
head 9.52146 -1.97622 6.15203
rclavicle 2.98177e-015 3.57812e-014
rhumerus -23.4321 26.4277 -86.2017
rradius 39.6539
rwrist -19.1541
rhand -31.3351 -26.6967
rfingers 7.12502
rthumb -4.60671 -56.6267
lclavicle 2.98177e-015 3.57812e-014
lhumerus -55.5824 -7.75664 94.3113
lradius 26.0646
lwrist 3.60055
lhand -15.3913 -27.0518
lfingers 7.12502
lthumb 10.7873 2.65117
rfemur 1.52339 4.81487 31.0386
rtibia 16.8609
rfoot -21.1748 4.93299
rtoes -15.3671
lfemur -45.5229 6.58691 -13.3299
ltibia 31.4851
lfoot -14.569 10.3842
ltoes -17.1563
128
root 8.43775 16.4553 -3.83236 9.1267 -7.13346 -6.18388
lowerback -4.16617 3.15793 0.862615
upperback 0.254144 4.07131 3.93615
thorax 2.36772 2.02133 3.82102
lowerneck -19.4886 -4.60288 -12.7838
upperneck 17.7155 -5.60591 13.5392
head 9.57847 -2.03603 6.11703
rclavicle 5.32246e-014 7.95139e-015
rhumerus -22.2471 26.4756 -85.8357
rradius 39.8685
rwrist -18.8129
rhand -32.1762 -25.7846
rfingers 7.12502
rthumb -5.41885 -55.6954
lclavicle 5.32246e-014 7.95139e-015
lhumerus -55.8207 -6.69813 93.0554
lradius 24.5568
lwrist 1.65201
lhand -15.3721 -27.4626
lfingers 7.12502
lthumb 10.8059 2.23943
rfemur 3.20309 4.4422 30.9382
rtibia 15.123
rfoot -20.4376 5.65179
rtoes -15.6186
lfemur -45.7149 5.3839 -12.1469
ltibia 29.1301
lfoot -14.7234 10.7064
ltoes -16.9297
129
root 8.45405 16.4356 -3.59502 9.11678 -7.39237 -6.43034
lowerback -4.16017 3.29332 1.1584
upperback 0.373294 4.2327 3.91666
thorax 2.50087 2.10364 3.65011
lowerneck -20 -4.66068 -12.6585
upperneck 17.8959 -5.70032 13.6163
head 9.74905 -2.04506 6.11801
rclavicle -1.00386e-014 -1.23246e-014
rhumerus -21.0646 26.7852 -85.6021
rradius 40.0383
rwrist -18.7137
rhand -33.4086 -24.5631
rfingers 7.12502
rthumb -6.6087 -54.44
lclavicle -1.00386e-014 -1.23246e-014
lhumerus -56.0851 -5.36874 91.392
lradius 23.0451
lwrist -0.515208
lhand -15.1075 -27.7281
lfingers 7.12502
lthumb 11.0611 1.96039
rfemur 5.01131 3.86857 30.8739
rtibia 13.4474
rfoot -19.7176 6.25647
rtoes -17.2205
lfemur -45.6245 3.91271 -10.7015
ltibia 26.9769
lfoot -14.6112 11.408
ltoes -15.4009
130
root 8.46182 16.4058 -3.35369 9.04789 -7.68307 -6.508
lowerback -4.23799 3.42563 1.13444
upperback 0.570126 4.40072 3.90309
thorax 2.73815 2.18432 3.67426
lowerneck -20.5924 -4.75383 -12.5931
upperneck 18.0556 -5.8308 13.7539
head 9.93771 -2.06523 6.14632
rclavicle 2.81777e-014 1.59028e-014
rhumerus -19.8256 27.2647 -85.3413
rradius 40.161
rwrist -18.8711
rhand -32.9073 -22.0492
rfingers 7.12502
rthumb -6.1247 -51.9407
lclavicle 2.81777e-014 1.59028e-014
lhumerus -56.3409 -3.92773 89.6141
lradius 21.7038
lwrist -2.49478
lhand -14.2358 -27.5187
lfingers 7.12502
lthumb 11.9018 2.12297
rfemur 6.95457 3.41646 30.6539
rtibia 11.6212
rfoot -19.0018 6.82799
rtoes -17.4355
lfemur -45.5773 2.70496 -9.54138
ltibia 25.2537
lfoot -14.8745 11.907
ltoes -12.5885
131
root 8.47516 16.3707 -3.119 9.11634 -7.88094 -6.67858
lowerback -4.32816 3.60972 1.26027
upperback 0.597605 4.63361 3.96949
thorax 2.80935 2.30125 3.69547
lowerneck -20.4818 -4.91375 -12.7886
upperneck 18.0175 -6.00457 13.7592
head 9.93705 -2.16288 6.15335
rclavicle 1.57537e-014 5.20816e-014
rhumerus -18.8738 27.2778 -84.8829
rradius 40.3536
rwrist -18.1992
rhand -32.0312 -22.5936
rfingers 7.12502
rthumb -5.27887 -52.5078
lclavicle 1.57537e-014 5.20816e-014
lhumerus -56.7901 -2.03102 87.4157
lradius 20.2578
lwrist -5.49422
lhand -14.149 -27.5955
lfingers 7.12502
lthumb 11.9854 2.0414
rfemur 8.75855 3.60458 30.5766
rtibia 9.67787
rfoot -18.3309 6.93794
rtoes -17.4132
lfemur -45.9009 2.13714 -8.6824
ltibia 23.9205
lfoot -14.8896 12.0423
ltoes -10.5099
132
root 8.49287 16.3384 -2.88889 9.20788 -7.96273 -7.14815
lowerback -4.088 3.72247 1.65079
upperback 0.42696 4.77481 4.16804
thorax 2.50624 2.37909 3.6654
lowerneck -20.1002 -4.94044 -12.8392
upperneck 17.8862 -6.00014 13.5108
head 9.81163 -2.20446 6.06367
rclavicle 4.80562e-014 3.65764e-014
rhumerus -18.2323 27.199 -84.4409
rradius 40.5099
rwrist -16.7415
rhand -32.082 -25.0763
rfingers 7.12502
rthumb -5.32795 -54.9893
lclavicle 4.80562e-014 3.65764e-014
lhumerus -57.4641 0.199706 84.771
lradius 18.7781
lwrist -8.91567
lhand -14.1937 -27.758
lfingers 7.12502
lthumb 11.9423 1.88137
rfemur 10.5498 3.71938 30.8772
rtibia 7.57743
rfoot -17.344 6.88284
rtoes -18.6376
lfemur -46.3309 1.77217 -7.7448
ltibia 22.9591
lfoot -13.7141 12.7384
ltoes -11.7313
133
root 8.49904 16.3114 -2.64645 9.25748 -8.14528 -7.2608
lowerback -4.06436 3.80109 1.50607
upperback 0.40048 4.88752 4.26625
thorax 2.43941 2.43399 3.85047
lowerneck -19.9214 -4.926 -12.8703
upperneck 17.6591 -5.96629 13.4962
head 9.69469 -2.19903 6.06026
rclavicle -3.47376e-014 -6.04305e-014
rhumerus -17.7965 27.9238 -84.3068
rradius 40.8079
rwrist -17.6653
rhand -32.1642 -21.0383
rfingers 7.12502
rthumb -5.40725 -50.9493
lclavicle -3.47376e-014 -6.04305e-014
lhumerus -57.7393 2.00102 82.3078
lradius 17.1456
lwrist -11.5476
lhand -13.939 -27.8792
lfingers 7.12502
lthumb 12.1879 1.74576
rfemur 12.6881 3.87874 30.8426
rtibia 4.90194
rfoot -15.7609 6.81734
rtoes -17.4521
lfemur -46.6646 1.79634 -7.55828
ltibia 22.3172
lfoot -12.6952 13.3477
ltoes -14.3788
134
root 8.52255 16.2736 -2.39468 9.10257 -8.50168 -7.34552
lowerback -4.1559 4.03428 1.68626
upperback 0.666906 5.17476 4.22391
thorax 2.77057 2.57624 3.74573
lowerneck -19.8496 -5.0298 -12.9757
upperneck 17.312 -6.09066 13.6517
head 9.58949 -2.25076 6.10507
rclavicle -2.06736e-014 2.8625e-014
rhumerus -18.225 31.4901 -85.1775
rradius 42.0693
rwrist -27.3181
rhand -41.7922 -12.2059
rfingers 7.12502
rthumb -14.695 -41.6651
lclavicle -2.06736e-014 2.8625e-014
lhumerus -57.6876 3.82829 79.565
lradius 15.3852
lwrist -14.5904
lhand -14.3549 -28.2574
lfingers 7.12502
lthumb 11.7869 1.3909
rfemur 16.2853 4.18089 30.7415
rtibia -1.59028e-014
rfoot -12.9562 6.5291
rtoes -14.2958
lfemur -46.6942 1.74908 -7.33564
ltibia 22.063
lfoot -13.6226 13.4105
ltoes -10.7273
135
root 8.5393 16.2349 -2.13834 8.95378 -8.5004 -7.37967
lowerback -4.25561 4.15243 1.75911
upperback 0.874367 5.31627 4.18467
thorax 3.0445 2.64534 3.69427
lowerneck -20.0154 -5.15001 -12.9683
upperneck 17.2578 -6.24258 13.6797
head 9.62535 -2.31207 6.08916
rclavicle 2.44505e-014 -8.34896e-015
rhumerus -17.2553 31.1952 -84.7252
rradius 42.0538
rwrist -26.781
rhand -41.4414 -12.5242
rfingers 7.12502
rthumb -14.3569 -42.0077
lclavicle 2.44505e-014 -8.34896e-015
lhumerus -57.9582 6.18394 75.9419
lradius 13.5518
lwrist -19.752
lhand -16.1795 -29.2096
lfingers 7.12502
lthumb 10.0269 0.531556
rfemur 17.433 4.13431 30.5973
rtibia -6.04305e-014
rfoot -12.5101 6.70204
rtoes -12.7929
lfemur -46.8253 1.41605 -7.20348
ltibia 22.1392
lfoot -14.5556 13.3461
ltoes -8.11983
136
root 8.55676 16.2065 -1.88279 8.85041 -8.44576 -7.57108
lowerback -4.16644 4.23225 1.91245
upperback 0.89898 5.41655 4.21205
thorax 3.02679 2.69785 3.63803
lowerneck -19.9894 -5.20969 -13.0288
upperneck 17.2534 -6.34441 13.8265
head 9.64292 -2.34896 6.1386
rclavicle 3.69739e-014 1.31198e-014
rhumerus -16.3131 30.3447 -84.2198
rradius 41.6613
rwrist -24.2628
rhand -39.834 -14.6065
rfingers 7.12502
rthumb -12.8077 -44.1936
lclavicle 3.69739e-014 1.31198e-014
lhumerus -58.67 9.1483 70.9661
lradius 11.7422
lwrist -27.5811
lhand -18.4519 -30.3514
lfingers 7.12502
lthumb 7.83416 -0.516587
rfemur 18.4775 4.05949 30.645
rtibia 6.36111e-015
rfoot -12.0738 6.76271
rtoes -14.6349
lfemur -47.0271 1.63827 -7.35899
ltibia 22.5416
lfoot -14.3492 13.0015
ltoes -9.37597
